<svg id="svg" version="1.1" xmlns="http://www.w3.org/2000/svg" xmlns:xlink="http://www.w3.org/1999/xlink" width="400" height="400" viewBox="0, 0, 400,400"><g id="svgg"><path id="path0" d="M38.209 29.585 C 38.079 29.796,37.802 31.821,37.595 34.085 C 37.388 36.348,37.028 39.730,36.795 41.600 C 36.562 43.470,36.193 46.620,35.975 48.600 C 34.981 57.636,34.803 59.207,34.411 62.400 C 33.706 68.132,33.187 72.862,32.929 75.906 L 32.684 78.813 44.042 78.706 L 55.400 78.600 57.520 74.600 C 58.686 72.400,60.901 68.170,62.444 65.200 C 63.986 62.230,65.822 58.720,66.524 57.400 L 67.800 55.000 84.100 54.896 L 100.400 54.791 100.400 112.572 C 100.400 148.020,100.255 170.442,100.026 170.584 C 99.820 170.711,98.335 171.006,96.726 171.238 C 95.117 171.470,92.810 171.818,91.600 172.010 C 88.485 172.506,84.189 173.194,81.500 173.629 C 80.235 173.833,78.165 174.167,76.900 174.371 C 75.635 174.576,73.250 174.940,71.600 175.180 C 66.503 175.924,66.843 175.248,67.966 182.400 C 68.478 185.663,69.175 190.390,69.529 193.000 L 69.800 195.000 119.658 195.102 L 169.516 195.203 169.688 193.702 C 169.783 192.876,170.366 188.747,170.984 184.527 C 172.304 175.506,172.354 175.782,169.332 175.423 C 168.049 175.271,164.930 174.803,162.400 174.384 C 157.817 173.625,154.834 173.152,149.702 172.370 C 148.216 172.144,145.920 171.791,144.600 171.585 C 143.280 171.379,141.543 171.113,140.740 170.994 C 139.937 170.876,139.082 170.539,138.839 170.247 C 138.520 169.863,138.425 153.742,138.499 112.357 L 138.600 55.000 155.056 54.896 L 171.512 54.791 172.530 56.739 C 173.090 57.810,174.074 59.657,174.717 60.843 C 175.360 62.029,176.663 64.440,177.613 66.200 C 178.562 67.960,180.073 70.751,180.970 72.403 C 181.866 74.054,182.870 75.944,183.199 76.603 C 184.110 78.421,183.878 78.387,195.500 78.394 L 206.400 78.400 206.400 76.467 C 206.400 75.403,206.232 73.558,206.027 72.367 C 205.822 71.175,205.465 68.760,205.234 67.000 C 204.796 63.661,204.236 59.423,203.584 54.500 C 203.373 52.905,203.020 50.295,202.801 48.700 C 202.581 47.105,202.124 43.550,201.785 40.800 C 200.660 31.669,200.414 29.947,200.183 29.572 C 199.865 29.058,38.527 29.070,38.209 29.585 M282.400 30.056 C 257.301 32.975,234.783 45.254,221.276 63.386 C 218.694 66.852,218.697 66.907,221.500 68.023 C 222.765 68.527,224.700 69.338,225.800 69.827 C 226.900 70.315,229.870 71.558,232.400 72.589 C 237.063 74.489,248.402 79.236,250.600 80.207 C 254.778 82.054,256.133 82.439,256.629 81.920 C 257.086 81.443,263.515 69.125,267.378 61.326 C 269.796 56.444,272.679 55.507,285.400 55.469 C 300.609 55.423,308.812 60.314,311.024 70.748 C 313.473 82.304,307.951 94.403,291.373 113.800 C 283.011 123.585,268.545 137.903,254.396 150.400 C 252.528 152.050,250.370 153.960,249.600 154.644 C 248.830 155.328,246.400 157.460,244.200 159.382 C 242.000 161.303,239.029 163.913,237.597 165.182 C 236.165 166.451,234.365 168.008,233.597 168.642 C 232.829 169.276,230.775 171.167,229.033 172.844 L 225.866 175.893 226.308 177.647 C 226.551 178.611,227.398 182.370,228.191 186.000 C 228.984 189.630,229.768 193.140,229.932 193.800 L 230.230 195.000 293.857 195.101 L 357.483 195.202 357.952 190.901 C 358.462 186.220,359.032 181.666,359.616 177.600 C 359.822 176.170,360.171 173.380,360.393 171.400 C 360.614 169.420,360.977 166.405,361.198 164.700 C 361.663 161.115,362.191 156.906,362.817 151.800 C 363.059 149.820,363.397 147.257,363.567 146.105 C 363.971 143.371,365.019 143.600,352.129 143.600 L 340.791 143.600 339.646 146.100 C 338.656 148.261,335.488 155.261,333.808 159.000 C 333.511 159.660,332.443 161.972,331.434 164.137 C 330.425 166.302,329.600 168.209,329.600 168.375 C 329.600 169.981,329.282 170.000,302.701 170.000 C 278.542 170.000,276.000 169.925,276.000 169.214 C 276.000 169.048,279.180 166.412,283.068 163.356 C 289.352 158.416,302.854 147.334,305.009 145.346 C 305.455 144.936,307.435 143.165,309.409 141.410 C 315.291 136.186,325.279 126.087,330.605 119.981 C 339.560 109.716,348.044 95.996,350.011 88.600 C 350.187 87.940,350.597 86.410,350.923 85.200 C 353.696 74.891,352.086 63.500,346.479 53.761 C 340.388 43.180,324.859 33.965,308.400 31.164 C 299.377 29.628,289.646 29.213,282.400 30.056 M42.686 203.047 C 42.145 203.589,42.348 223.861,42.900 224.297 C 43.399 224.692,44.946 224.854,55.253 225.593 C 58.252 225.808,61.177 226.163,61.753 226.382 L 62.800 226.780 62.800 285.600 L 62.800 344.420 61.900 344.753 C 61.405 344.937,59.740 345.310,58.200 345.582 C 51.210 346.817,44.971 348.116,44.665 348.400 C 44.397 348.648,47.425 365.290,48.249 368.100 C 48.534 369.072,138.183 369.179,146.200 368.217 C 172.555 365.053,190.134 354.161,194.968 337.999 C 196.867 331.648,197.597 320.480,196.408 315.972 C 196.150 314.997,195.762 313.480,195.545 312.600 C 193.801 305.542,188.073 298.125,180.284 292.840 C 178.025 291.307,170.473 287.614,169.580 287.606 C 169.239 287.603,168.789 287.452,168.580 287.272 C 168.371 287.092,166.850 286.532,165.200 286.028 C 163.550 285.525,161.787 284.952,161.281 284.756 C 160.776 284.560,159.906 284.400,159.348 284.400 C 158.000 284.400,158.312 283.514,159.833 283.023 C 182.626 275.667,194.301 253.623,186.297 233.054 C 180.882 219.138,164.807 208.167,144.400 204.460 C 143.190 204.240,140.940 203.835,139.400 203.559 C 136.297 203.003,43.223 202.511,42.686 203.047 M288.560 208.100 C 286.175 211.015,283.394 214.390,282.379 215.600 C 281.364 216.810,277.859 221.040,274.590 225.000 C 271.322 228.960,267.458 233.640,266.004 235.400 C 264.550 237.160,261.958 240.310,260.246 242.400 C 258.533 244.490,256.776 246.619,256.341 247.131 C 255.907 247.643,252.110 252.233,247.903 257.331 C 243.697 262.429,238.614 268.580,236.609 271.000 C 234.603 273.420,230.742 278.100,228.028 281.400 C 223.349 287.091,221.633 289.163,218.400 293.023 C 217.630 293.943,216.729 295.034,216.399 295.448 C 216.068 295.861,214.673 297.581,213.299 299.269 C 210.352 302.888,210.369 302.755,212.347 306.484 C 214.276 310.120,217.581 316.395,219.782 320.600 L 221.457 323.800 259.629 324.000 L 297.800 324.200 297.800 334.594 L 297.800 344.989 295.800 345.264 C 294.700 345.416,291.370 345.733,288.400 345.969 C 285.430 346.205,278.950 346.765,274.000 347.213 C 269.050 347.660,263.065 348.138,260.700 348.273 L 256.400 348.520 256.400 358.660 L 256.400 368.800 307.541 368.800 L 358.682 368.800 358.502 361.900 C 358.402 358.105,358.204 353.740,358.061 352.200 L 357.800 349.400 355.600 348.930 C 354.390 348.672,349.890 347.986,345.600 347.407 C 341.310 346.827,337.395 346.254,336.900 346.133 L 336.000 345.913 336.000 335.199 C 336.000 325.799,336.078 324.456,336.633 324.243 C 336.981 324.109,342.113 324.000,348.038 324.000 L 358.811 324.000 358.706 311.300 L 358.600 298.600 347.400 298.400 L 336.200 298.200 336.098 250.500 L 335.997 202.800 314.446 202.800 L 292.895 202.800 288.560 208.100 M119.373 228.410 C 124.451 228.984,128.425 229.594,129.600 229.979 C 130.150 230.160,131.410 230.539,132.400 230.823 C 142.994 233.855,148.045 239.571,148.336 248.857 C 148.688 260.090,142.278 268.299,131.200 270.802 C 129.990 271.076,128.460 271.471,127.800 271.680 C 127.140 271.890,120.975 272.164,114.100 272.290 L 101.600 272.520 101.600 250.527 C 101.600 238.430,101.720 228.413,101.867 228.267 C 102.285 227.848,115.347 227.955,119.373 228.410 M298.000 268.400 L 298.000 298.400 272.367 298.400 L 246.733 298.400 247.467 297.441 C 247.870 296.914,250.000 294.361,252.200 291.769 C 254.400 289.176,258.270 284.589,260.800 281.574 C 263.330 278.559,267.734 273.327,270.587 269.946 C 273.440 266.566,277.579 261.640,279.783 259.000 C 281.988 256.360,283.888 254.110,284.004 254.000 C 284.296 253.724,293.877 242.295,295.600 240.167 C 298.129 237.044,298.000 235.521,298.000 268.400 M132.200 298.765 C 133.300 299.007,135.100 299.400,136.200 299.639 C 144.910 301.531,151.832 305.847,154.534 311.072 C 156.592 315.053,157.411 324.007,156.046 327.607 C 151.445 339.740,142.630 343.179,116.100 343.193 L 101.600 343.200 101.600 320.556 L 101.600 297.911 115.900 298.118 C 123.958 298.235,131.073 298.518,132.200 298.765 " stroke="none" fill="#fafacb" fill-rule="evenodd"></path><path id="path1" d="M39.300 0.292 C 38.145 0.375,37.200 0.612,37.200 0.821 C 37.200 1.029,36.480 1.200,35.600 1.200 C 34.720 1.200,34.000 1.380,34.000 1.600 C 34.000 1.820,33.561 2.000,33.024 2.000 C 32.487 2.000,31.936 2.180,31.800 2.400 C 31.664 2.620,31.203 2.800,30.776 2.800 C 30.349 2.800,30.000 2.980,30.000 3.200 C 30.000 3.420,29.640 3.600,29.200 3.600 C 28.760 3.600,28.400 3.780,28.400 4.000 C 28.400 4.220,28.040 4.400,27.600 4.400 C 27.160 4.400,26.800 4.546,26.800 4.725 C 26.800 4.904,26.170 5.298,25.400 5.600 C 24.630 5.902,24.000 6.296,24.000 6.475 C 24.000 6.654,23.680 6.800,23.288 6.800 C 22.897 6.800,22.317 7.160,22.000 7.600 C 21.683 8.040,21.146 8.400,20.808 8.400 C 20.469 8.400,19.744 8.805,19.196 9.300 C 18.648 9.795,17.512 10.714,16.670 11.343 C 14.723 12.798,12.798 14.723,11.343 16.670 C 10.714 17.512,9.795 18.648,9.300 19.196 C 8.805 19.744,8.400 20.469,8.400 20.808 C 8.400 21.146,8.040 21.683,7.600 22.000 C 7.160 22.317,6.800 22.897,6.800 23.288 C 6.800 23.680,6.654 24.000,6.475 24.000 C 6.296 24.000,5.902 24.630,5.600 25.400 C 5.298 26.170,4.904 26.800,4.725 26.800 C 4.546 26.800,4.400 27.160,4.400 27.600 C 4.400 28.040,4.220 28.400,4.000 28.400 C 3.780 28.400,3.600 28.760,3.600 29.200 C 3.600 29.640,3.420 30.000,3.200 30.000 C 2.980 30.000,2.800 30.349,2.800 30.776 C 2.800 31.203,2.620 31.664,2.400 31.800 C 2.180 31.936,2.000 32.487,2.000 33.024 C 2.000 33.561,1.820 34.000,1.600 34.000 C 1.380 34.000,1.200 34.705,1.200 35.567 C 1.200 36.464,0.987 37.204,0.700 37.300 C -0.036 37.545,-0.036 362.455,0.700 362.700 C 0.987 362.796,1.200 363.536,1.200 364.433 C 1.200 365.295,1.380 366.000,1.600 366.000 C 1.820 366.000,2.000 366.439,2.000 366.976 C 2.000 367.513,2.180 368.064,2.400 368.200 C 2.620 368.336,2.800 368.797,2.800 369.224 C 2.800 369.651,2.980 370.000,3.200 370.000 C 3.420 370.000,3.600 370.360,3.600 370.800 C 3.600 371.240,3.780 371.600,4.000 371.600 C 4.220 371.600,4.400 371.960,4.400 372.400 C 4.400 372.840,4.580 373.200,4.800 373.200 C 5.020 373.200,5.200 373.560,5.200 374.000 C 5.200 374.440,5.380 374.800,5.600 374.800 C 5.820 374.800,6.000 375.070,6.000 375.400 C 6.000 375.730,6.180 376.000,6.400 376.000 C 6.620 376.000,6.800 376.320,6.800 376.712 C 6.800 377.103,7.160 377.683,7.600 378.000 C 8.040 378.317,8.400 378.854,8.400 379.192 C 8.400 379.531,8.805 380.256,9.300 380.804 C 9.795 381.352,10.714 382.488,11.343 383.330 C 12.798 385.277,14.723 387.202,16.670 388.657 C 17.512 389.286,18.648 390.205,19.196 390.700 C 19.744 391.195,20.469 391.600,20.808 391.600 C 21.146 391.600,21.683 391.960,22.000 392.400 C 22.317 392.840,22.897 393.200,23.288 393.200 C 23.680 393.200,24.000 393.346,24.000 393.525 C 24.000 393.704,24.630 394.098,25.400 394.400 C 26.170 394.702,26.800 395.096,26.800 395.275 C 26.800 395.454,27.160 395.600,27.600 395.600 C 28.040 395.600,28.400 395.780,28.400 396.000 C 28.400 396.220,28.760 396.400,29.200 396.400 C 29.640 396.400,30.000 396.580,30.000 396.800 C 30.000 397.020,30.349 397.200,30.776 397.200 C 31.203 397.200,31.664 397.380,31.800 397.600 C 31.936 397.820,32.487 398.000,33.024 398.000 C 33.561 398.000,34.000 398.180,34.000 398.400 C 34.000 398.620,34.705 398.800,35.567 398.800 C 36.464 398.800,37.204 399.013,37.300 399.300 C 37.545 400.036,362.455 400.036,362.700 399.300 C 362.796 399.013,363.536 398.800,364.433 398.800 C 365.295 398.800,366.000 398.620,366.000 398.400 C 366.000 398.180,366.439 398.000,366.976 398.000 C 367.513 398.000,368.064 397.820,368.200 397.600 C 368.336 397.380,368.797 397.200,369.224 397.200 C 369.651 397.200,370.000 397.020,370.000 396.800 C 370.000 396.580,370.360 396.400,370.800 396.400 C 371.240 396.400,371.600 396.220,371.600 396.000 C 371.600 395.780,371.960 395.600,372.400 395.600 C 372.840 395.600,373.200 395.420,373.200 395.200 C 373.200 394.980,373.560 394.800,374.000 394.800 C 374.440 394.800,374.800 394.620,374.800 394.400 C 374.800 394.180,375.070 394.000,375.400 394.000 C 375.730 394.000,376.000 393.820,376.000 393.600 C 376.000 393.380,376.320 393.200,376.712 393.200 C 377.103 393.200,377.683 392.840,378.000 392.400 C 378.317 391.960,378.889 391.600,379.270 391.600 C 379.652 391.600,380.378 391.195,380.885 390.700 C 381.391 390.205,382.493 389.286,383.332 388.657 C 385.279 387.200,387.205 385.273,388.657 383.330 C 389.286 382.488,390.205 381.352,390.700 380.804 C 391.195 380.256,391.600 379.531,391.600 379.192 C 391.600 378.854,391.960 378.317,392.400 378.000 C 392.840 377.683,393.200 377.103,393.200 376.712 C 393.200 376.320,393.380 376.000,393.600 376.000 C 393.820 376.000,394.000 375.730,394.000 375.400 C 394.000 375.070,394.180 374.800,394.400 374.800 C 394.620 374.800,394.800 374.440,394.800 374.000 C 394.800 373.560,394.980 373.200,395.200 373.200 C 395.420 373.200,395.600 372.840,395.600 372.400 C 395.600 371.960,395.780 371.600,396.000 371.600 C 396.220 371.600,396.400 371.240,396.400 370.800 C 396.400 370.360,396.580 370.000,396.800 370.000 C 397.020 370.000,397.200 369.651,397.200 369.224 C 397.200 368.797,397.380 368.336,397.600 368.200 C 397.820 368.064,398.000 367.513,398.000 366.976 C 398.000 366.439,398.180 366.000,398.400 366.000 C 398.620 366.000,398.800 365.295,398.800 364.433 C 398.800 363.536,399.013 362.796,399.300 362.700 C 400.036 362.455,400.036 37.545,399.300 37.300 C 399.013 37.204,398.800 36.464,398.800 35.567 C 398.800 34.705,398.620 34.000,398.400 34.000 C 398.180 34.000,398.000 33.561,398.000 33.024 C 398.000 32.487,397.820 31.936,397.600 31.800 C 397.380 31.664,397.200 31.203,397.200 30.776 C 397.200 30.349,397.020 30.000,396.800 30.000 C 396.580 30.000,396.400 29.640,396.400 29.200 C 396.400 28.760,396.220 28.400,396.000 28.400 C 395.780 28.400,395.600 28.040,395.600 27.600 C 395.600 27.160,395.454 26.800,395.275 26.800 C 395.096 26.800,394.702 26.170,394.400 25.400 C 394.098 24.630,393.704 24.000,393.525 24.000 C 393.346 24.000,393.200 23.680,393.200 23.288 C 393.200 22.897,392.840 22.317,392.400 22.000 C 391.960 21.683,391.600 21.146,391.600 20.808 C 391.600 20.469,391.195 19.744,390.700 19.196 C 390.205 18.648,389.286 17.512,388.657 16.670 C 387.202 14.723,385.277 12.798,383.330 11.343 C 382.488 10.714,381.352 9.795,380.804 9.300 C 380.256 8.805,379.531 8.400,379.192 8.400 C 378.854 8.400,378.317 8.040,378.000 7.600 C 377.683 7.160,377.103 6.800,376.712 6.800 C 376.320 6.800,376.000 6.620,376.000 6.400 C 376.000 6.180,375.730 6.000,375.400 6.000 C 375.070 6.000,374.800 5.820,374.800 5.600 C 374.800 5.380,374.440 5.200,374.000 5.200 C 373.560 5.200,373.200 5.020,373.200 4.800 C 373.200 4.580,372.840 4.400,372.400 4.400 C 371.960 4.400,371.600 4.220,371.600 4.000 C 371.600 3.780,371.240 3.600,370.800 3.600 C 370.360 3.600,370.000 3.420,370.000 3.200 C 370.000 2.980,369.651 2.800,369.224 2.800 C 368.797 2.800,368.336 2.620,368.200 2.400 C 368.064 2.180,367.513 2.000,366.976 2.000 C 366.439 2.000,366.000 1.820,366.000 1.600 C 366.000 1.380,365.295 1.200,364.433 1.200 C 363.536 1.200,362.796 0.987,362.700 0.700 C 362.544 0.232,45.763 -0.167,39.300 0.292 M358.200 6.987 C 375.374 10.061,390.051 24.828,393.173 42.173 C 393.774 45.516,393.774 354.484,393.173 357.827 C 390.017 375.362,374.878 390.406,357.600 393.177 C 353.009 393.913,45.750 393.749,41.552 393.008 C 24.435 389.987,9.359 374.452,6.803 357.200 C 6.481 355.029,6.392 311.108,6.479 198.200 L 6.600 42.200 7.523 39.033 C 12.345 22.488,25.356 10.255,41.574 7.018 C 45.678 6.198,353.628 6.169,358.200 6.987 M227.986 55.500 L 225.800 57.800 228.100 55.614 C 230.237 53.582,230.583 53.200,230.286 53.200 C 230.224 53.200,229.189 54.235,227.986 55.500 M138.595 112.600 C 138.595 144.280,138.642 157.181,138.700 141.269 C 138.758 125.356,138.758 99.436,138.700 83.669 C 138.642 67.901,138.595 80.920,138.595 112.600 M289.729 169.900 C 296.950 169.961,308.650 169.961,315.729 169.900 C 322.808 169.839,316.900 169.789,302.600 169.789 C 288.300 169.789,282.508 169.839,289.729 169.900 M226.975 174.500 L 225.800 175.800 227.100 174.625 C 227.815 173.979,228.400 173.394,228.400 173.325 C 228.400 173.016,228.070 173.288,226.975 174.500 M64.300 202.700 C 76.015 202.759,95.185 202.759,106.900 202.700 C 118.615 202.641,109.030 202.593,85.600 202.593 C 62.170 202.593,52.585 202.641,64.300 202.700 M303.700 202.700 C 309.585 202.762,319.215 202.762,325.100 202.700 C 330.985 202.637,326.170 202.586,314.400 202.586 C 302.630 202.586,297.815 202.637,303.700 202.700 M336.194 250.600 C 336.194 276.780,336.241 287.431,336.300 274.269 C 336.358 261.107,336.358 239.687,336.300 226.669 C 336.241 213.651,336.194 224.420,336.194 250.600 M188.928 246.400 C 188.928 247.830,189.001 248.415,189.089 247.700 C 189.178 246.985,189.178 245.815,189.089 245.100 C 189.001 244.385,188.928 244.970,188.928 246.400 M141.775 265.300 L 140.600 266.600 141.900 265.425 C 142.615 264.779,143.200 264.194,143.200 264.125 C 143.200 263.816,142.870 264.088,141.775 265.300 M336.175 335.200 C 336.175 341.250,336.231 343.725,336.299 340.700 C 336.367 337.675,336.367 332.725,336.299 329.700 C 336.231 326.675,336.175 329.150,336.175 335.200 M357.994 351.519 L 358.187 353.800 358.318 351.844 C 358.390 350.769,358.303 349.742,358.124 349.563 C 357.946 349.384,357.887 350.264,357.994 351.519 M358.514 364.200 C 358.517 365.300,358.595 365.703,358.687 365.095 C 358.779 364.486,358.777 363.586,358.682 363.095 C 358.587 362.603,358.511 363.100,358.514 364.200 M69.931 369.100 C 81.662 369.159,100.742 369.159,112.331 369.100 C 123.919 369.041,114.320 368.993,91.000 368.993 C 67.680 368.993,58.199 369.041,69.931 369.100 M281.931 369.100 C 296.083 369.158,319.123 369.158,333.131 369.100 C 347.139 369.042,335.560 368.994,307.400 368.994 C 279.240 368.994,267.779 369.042,281.931 369.100 " stroke="none" fill="#504e52" fill-rule="evenodd"></path><path id="path2" d="M41.574 7.018 C 25.356 10.255,12.345 22.488,7.523 39.033 L 6.600 42.200 6.479 198.200 C 6.392 311.108,6.481 355.029,6.803 357.200 C 9.359 374.452,24.435 389.987,41.552 393.008 C 45.750 393.749,353.009 393.913,357.600 393.177 C 374.878 390.406,390.017 375.362,393.173 357.827 C 393.774 354.484,393.774 45.516,393.173 42.173 C 390.051 24.828,375.374 10.061,358.200 6.987 C 353.628 6.169,45.678 6.198,41.574 7.018 M200.332 29.900 C 200.531 30.285,200.806 31.680,200.945 33.000 C 201.083 34.320,201.362 36.750,201.565 38.400 C 201.906 41.169,202.128 42.813,203.218 50.600 C 203.434 52.140,203.779 54.840,203.986 56.600 C 204.193 58.360,204.556 61.240,204.794 63.000 C 206.617 76.516,206.759 77.742,206.549 78.082 C 206.441 78.257,201.337 78.400,195.206 78.400 L 184.059 78.400 183.503 77.300 C 183.198 76.695,182.072 74.580,181.002 72.600 C 176.485 64.245,172.948 57.686,172.209 56.292 L 171.418 54.800 155.109 54.800 L 138.800 54.800 138.800 112.557 C 138.800 167.190,138.838 170.330,139.500 170.596 C 139.885 170.752,141.325 171.041,142.700 171.239 C 144.075 171.438,146.415 171.795,147.900 172.033 C 149.385 172.271,151.230 172.546,152.000 172.645 C 152.770 172.743,154.435 172.998,155.700 173.212 C 161.513 174.193,162.815 174.397,166.000 174.823 C 172.120 175.641,172.468 175.792,172.196 177.519 C 171.935 179.182,171.387 182.761,170.822 186.500 C 170.615 187.875,170.219 190.395,169.943 192.100 L 169.441 195.200 119.571 195.200 L 69.702 195.200 69.467 193.300 C 69.339 192.255,69.032 190.050,68.787 188.400 C 68.541 186.750,68.180 184.320,67.984 183.000 C 66.768 174.793,65.692 175.920,76.200 174.386 C 77.520 174.193,79.770 173.838,81.200 173.597 C 82.630 173.356,84.970 172.986,86.400 172.774 C 87.830 172.562,89.990 172.226,91.200 172.027 C 92.410 171.828,94.664 171.481,96.209 171.255 C 97.754 171.029,99.329 170.725,99.709 170.580 C 100.359 170.330,100.400 166.912,100.400 112.553 L 100.400 54.791 84.115 54.896 L 67.830 55.000 66.385 57.800 C 65.046 60.396,63.593 63.177,57.661 74.500 L 55.408 78.800 44.044 78.800 L 32.681 78.800 32.956 75.500 C 33.253 71.931,33.805 66.800,35.174 54.900 C 35.408 52.865,35.790 49.535,36.022 47.500 C 36.254 45.465,36.609 42.360,36.811 40.600 C 37.013 38.840,37.349 35.741,37.557 33.714 C 37.765 31.687,38.050 29.842,38.191 29.614 C 38.706 28.781,199.902 29.065,200.332 29.900 M301.210 29.996 C 324.052 32.666,341.586 42.723,348.441 57.086 C 354.070 68.880,353.338 84.588,346.582 97.000 C 343.672 102.345,342.812 103.790,340.392 107.404 C 329.668 123.418,311.418 141.199,281.891 164.400 C 278.671 166.930,276.029 169.135,276.019 169.300 C 276.008 169.465,287.878 169.600,302.395 169.600 L 328.789 169.600 330.237 166.500 C 331.034 164.795,332.116 162.455,332.643 161.300 C 333.169 160.145,334.033 158.255,334.562 157.100 C 335.091 155.945,335.921 154.100,336.405 153.000 C 337.803 149.822,339.993 145.055,340.355 144.400 C 340.638 143.888,342.385 143.800,352.244 143.800 L 363.800 143.800 363.707 144.800 C 363.615 145.795,363.131 149.795,362.389 155.700 C 361.638 161.683,361.225 165.030,360.823 168.400 C 360.600 170.270,360.044 174.680,359.588 178.200 C 359.132 181.720,358.592 186.310,358.389 188.400 C 358.185 190.490,357.909 192.875,357.774 193.700 L 357.530 195.200 293.783 195.200 L 230.036 195.200 229.774 193.700 C 229.519 192.246,227.242 181.951,226.410 178.494 C 225.640 175.290,224.918 176.167,237.200 165.382 C 239.950 162.967,243.550 159.841,245.200 158.436 C 258.250 147.317,276.938 129.586,286.768 118.997 C 312.663 91.101,318.646 69.244,303.097 59.343 C 296.439 55.104,277.414 53.930,270.430 57.328 C 269.227 57.913,269.044 58.244,258.888 78.119 C 256.519 82.754,256.239 82.937,253.613 81.582 C 252.538 81.027,249.217 79.600,249.000 79.600 C 248.885 79.600,247.938 79.225,246.896 78.768 C 245.853 78.310,244.370 77.660,243.600 77.324 C 242.830 76.988,239.770 75.725,236.800 74.518 C 233.830 73.311,230.450 71.890,229.288 71.361 C 228.127 70.833,227.019 70.400,226.826 70.400 C 226.525 70.400,225.023 69.719,222.305 68.350 C 221.923 68.157,221.383 67.996,221.105 67.991 C 220.827 67.986,220.198 67.671,219.706 67.291 L 218.812 66.600 221.345 63.200 C 227.053 55.537,235.250 48.319,245.033 42.341 C 249.880 39.379,258.506 35.200,259.772 35.200 C 260.091 35.200,260.451 35.041,260.570 34.848 C 260.690 34.654,261.196 34.397,261.694 34.276 C 262.192 34.155,263.230 33.878,264.000 33.662 C 276.974 30.009,290.187 28.708,301.210 29.996 M135.400 203.140 C 150.788 204.882,161.005 208.162,170.639 214.451 C 175.297 217.491,181.784 224.053,183.836 227.800 C 184.077 228.240,184.630 229.230,185.063 230.000 C 194.963 247.569,186.668 270.009,166.522 280.159 C 164.027 281.417,163.104 281.832,159.900 283.135 C 158.271 283.798,158.542 284.160,161.100 284.736 C 163.281 285.228,167.259 286.461,169.000 287.185 C 172.159 288.500,173.371 289.056,176.200 290.488 C 187.290 296.099,193.678 304.033,196.400 315.576 C 197.022 318.214,197.068 330.329,196.464 332.618 C 196.235 333.488,195.824 335.100,195.551 336.200 C 191.599 352.140,175.179 363.859,151.600 367.568 C 150.170 367.793,147.740 368.187,146.200 368.443 C 141.774 369.179,49.106 369.458,48.531 368.737 C 47.841 367.872,44.218 348.822,44.659 348.381 C 44.870 348.170,47.463 347.533,50.421 346.966 C 53.380 346.398,57.330 345.621,59.200 345.238 L 62.600 344.542 62.701 285.792 C 62.757 253.480,62.657 226.897,62.478 226.718 C 62.165 226.405,59.568 226.110,48.000 225.074 L 42.600 224.591 42.493 213.823 C 42.411 205.480,42.501 202.981,42.893 202.724 C 43.620 202.247,130.989 202.640,135.400 203.140 M335.920 202.880 C 336.288 203.248,336.400 214.452,336.400 250.874 L 336.400 298.387 347.500 298.494 L 358.600 298.600 358.706 311.300 L 358.811 324.000 348.238 324.000 C 342.423 324.000,337.381 324.109,337.033 324.243 C 336.478 324.456,336.400 325.799,336.400 335.202 L 336.400 345.918 338.900 346.330 C 340.275 346.557,344.280 347.126,347.800 347.596 C 351.320 348.065,355.100 348.664,356.200 348.927 L 358.200 349.406 358.499 358.803 C 358.664 363.971,358.714 368.425,358.612 368.700 C 358.464 369.096,347.856 369.200,307.413 369.200 L 256.400 369.200 256.400 358.883 L 256.400 348.565 262.500 348.059 C 265.855 347.780,271.343 347.296,274.697 346.982 C 278.050 346.669,284.434 346.130,288.883 345.784 C 293.332 345.438,297.204 344.963,297.486 344.728 C 298.334 344.025,298.221 324.570,297.367 324.243 C 297.019 324.109,279.759 324.000,259.011 324.000 L 221.287 324.000 220.648 322.500 C 220.297 321.675,219.588 320.280,219.074 319.400 C 218.559 318.520,216.383 314.415,214.239 310.278 L 210.340 302.755 211.846 300.878 C 212.674 299.845,214.544 297.560,216.002 295.800 C 219.416 291.679,229.059 280.008,236.188 271.371 C 239.261 267.647,244.310 261.540,247.407 257.800 C 252.968 251.085,266.658 234.509,273.134 226.647 C 274.968 224.421,277.435 221.430,278.617 220.000 C 279.799 218.570,281.864 216.050,283.207 214.400 C 284.550 212.750,286.042 210.948,286.524 210.396 C 287.006 209.844,288.198 208.404,289.173 207.196 C 290.148 205.988,291.489 204.415,292.152 203.700 L 293.357 202.400 314.398 202.400 C 330.231 202.400,335.559 202.519,335.920 202.880 M101.784 228.500 C 101.678 228.775,101.639 238.720,101.696 250.600 L 101.800 272.200 113.526 272.158 C 124.725 272.117,127.122 271.926,131.200 270.747 C 142.337 267.529,148.391 260.224,148.391 250.000 C 148.391 238.551,141.381 232.170,125.600 229.253 C 118.780 227.992,102.179 227.468,101.784 228.500 M294.359 241.867 C 292.744 243.810,290.338 246.665,289.012 248.211 C 286.725 250.877,285.209 252.681,281.796 256.800 C 280.976 257.790,280.190 258.690,280.050 258.800 C 279.910 258.910,279.320 259.630,278.739 260.400 C 278.157 261.170,277.348 262.166,276.941 262.613 C 276.156 263.475,274.174 265.807,268.963 272.000 C 259.941 282.723,257.002 286.223,253.178 290.800 C 250.880 293.550,248.595 296.248,248.100 296.796 C 247.605 297.344,247.200 297.930,247.200 298.099 C 247.200 298.268,258.585 298.360,272.500 298.303 L 297.800 298.200 297.903 268.623 C 297.961 251.760,297.852 238.892,297.650 238.690 C 297.443 238.483,296.070 239.808,294.359 241.867 M101.900 298.221 C 101.735 298.393,101.600 308.583,101.600 320.867 L 101.600 343.200 115.700 343.193 C 133.984 343.184,138.965 342.453,146.349 338.697 C 161.536 330.970,159.819 308.083,143.600 302.041 C 142.830 301.754,141.840 301.378,141.400 301.205 C 140.005 300.657,135.567 299.547,131.800 298.802 C 129.039 298.257,102.363 297.738,101.900 298.221 " stroke="none" fill="#4f0791" fill-rule="evenodd"></path></g></svg>